# xmcd CD database file
#
# Track frame offsets:
#	150
#	15487
#	41685
#	59587
#	77997
#	97340
#	115747
#	134310
#	152972
#	174857
#	192827
#	217012
#	236345
#	256582
#	278645
#	295237
#	313820
#
# Disc length: 4372 seconds
#
# Revision: 4
# Processed by: cddbd v1.5.2PL0 Copyright (c) Steve Scherf et al.
# Submitted via: CDex 1.51
#
DISCID=f1111211
DTITLE=Various Artist - Black Magic 4 [CD1)
DYEAR=1995
DGENRE=Soul
TTITLE0=M-People - Don´t Look Any Further
TTITLE1=Gladys Knight - I Don´t Want To Know
TTITLE2=Anita Baker - Body and Soul
TTITLE3=Des´ree - Stand On My Own Ground
TTITLE4=Massive Attack - Better Things
TTITLE5=Robin S. - I Want To Thank You
TTITLE6=El Debarge - Can´t Get Enough
TTITLE7=Gerald Levert - I´d Give Anything
TTITLE8=Billy Ocean - There´ll Be Sad Songs (To Make You Cry)
TTITLE9=Londonbeat - A Better Love
TTITLE10=Soul Il Soul - Missing You
TTITLE11=Adeva - Until You Come Back To Me
TTITLE12=Kool and The Gang - September Love
TTITLE13=Keith Washington - Kissing You
TTITLE14=Teddy Pendergrass - Love T.k.o.
TTITLE15=Ten City - When I´m Gone, I´m Gone
TTITLE16=Shai - If I Ever Fall In Love
EXTD=YEAR: 1995
EXTT0=
EXTT1=
EXTT2=
EXTT3=
EXTT4=
EXTT5=
EXTT6=
EXTT7=
EXTT8=
EXTT9=
EXTT10=
EXTT11=
EXTT12=
EXTT13=
EXTT14=
EXTT15=
EXTT16=
PLAYORDER=
